<?xml version="1.0" standalone="no"?><svg xmlns="http://www.w3.org/2000/svg" viewBox="0 0 1440 320"><path fill="#F3F4F5" fill-opacity="1" d="M0,64L0,256L68.6,256L68.6,64L137.1,64L137.1,160L205.7,160L205.7,96L274.3,96L274.3,192L342.9,192L342.9,224L411.4,224L411.4,128L480,128L480,160L548.6,160L548.6,64L617.1,64L617.1,192L685.7,192L685.7,32L754.3,32L754.3,32L822.9,32L822.9,160L891.4,160L891.4,128L960,128L960,64L1028.6,64L1028.6,192L1097.1,192L1097.1,160L1165.7,160L1165.7,288L1234.3,288L1234.3,160L1302.9,160L1302.9,64L1371.4,64L1371.4,128L1440,128L1440,320L1371.4,320L1371.4,320L1302.9,320L1302.9,320L1234.3,320L1234.3,320L1165.7,320L1165.7,320L1097.1,320L1097.1,320L1028.6,320L1028.6,320L960,320L960,320L891.4,320L891.4,320L822.9,320L822.9,320L754.3,320L754.3,320L685.7,320L685.7,320L617.1,320L617.1,320L548.6,320L548.6,320L480,320L480,320L411.4,320L411.4,320L342.9,320L342.9,320L274.3,320L274.3,320L205.7,320L205.7,320L137.1,320L137.1,320L68.6,320L68.6,320L0,320L0,320Z"></path></svg>